<svg width="21" height="23" viewBox="0 0 21 23" fill="none" xmlns="http://www.w3.org/2000/svg">
<path d="M10.7156 16.9553C11.4409 16.9553 12.0579 16.7996 12.5776 16.4984C13.0972 16.1972 13.5086 15.7819 13.8225 15.2834C14.1473 14.7849 14.3746 14.2034 14.5262 13.5492C14.6778 12.895 14.7535 12.2096 14.7535 11.493C14.7535 10.2829 15.7345 9.3019 16.9447 9.3019H18.8192C20.0236 9.3019 21 10.2783 21 11.4827C21 12.9988 20.7943 14.4215 20.3937 15.7403C19.9932 17.0592 19.3545 18.2015 18.4992 19.1672C17.644 20.133 16.5723 20.8911 15.284 21.4415C13.9957 21.9918 12.4693 22.2722 10.7156 22.2722C8.89684 22.2722 7.34876 21.9814 6.04968 21.3999C4.76142 20.8184 3.70051 20.0292 2.86693 19.053C2.03335 18.0665 1.42711 16.9242 1.03738 15.6261C0.658486 14.3176 0.463623 12.9365 0.463623 11.4827C0.463623 10.2783 1.43998 9.3019 2.64438 9.3019H4.52929C5.73369 9.3019 6.71005 10.2783 6.71005 11.4827C6.71005 12.1992 6.78583 12.895 6.93739 13.5596C7.08895 14.2242 7.32711 14.8057 7.64106 15.3146C7.96583 15.813 8.3772 16.218 8.87519 16.5088C9.37317 16.7996 9.99023 16.9553 10.7156 16.9553Z" fill="#383838"/>
<path d="M3.52606 6.7799C5.2174 6.7799 6.5885 5.4088 6.5885 3.71747C6.5885 2.02613 5.2174 0.655029 3.52606 0.655029C1.83472 0.655029 0.463623 2.02613 0.463623 3.71747C0.463623 5.4088 1.83472 6.7799 3.52606 6.7799Z" fill="#383838"/>
<path d="M17.9374 6.7799C19.6288 6.7799 20.9999 5.4088 20.9999 3.71747C20.9999 2.02613 19.6288 0.655029 17.9374 0.655029C16.2461 0.655029 14.875 2.02613 14.875 3.71747C14.875 5.4088 16.2461 6.7799 17.9374 6.7799Z" fill="#383838"/>
</svg>
