<svg width="94" height="33" viewBox="0 0 94 33" fill="none" xmlns="http://www.w3.org/2000/svg">
<path d="M15.105 24.7763C16.1737 24.7763 17.0829 24.545 17.8485 24.0979C18.6141 23.6508 19.2202 23.0341 19.6828 22.2941C20.1613 21.554 20.4963 20.6906 20.7196 19.7193C20.9429 18.748 21.0545 17.7304 21.0545 16.6666V13.4134H30.2579V16.6511C30.2579 18.9021 29.9549 21.0144 29.3647 22.9724C28.7745 24.9305 27.8335 26.6264 26.5734 28.0603C25.3133 29.4942 23.7342 30.6196 21.8361 31.4368C19.938 32.2539 17.689 32.6702 15.105 32.6702C12.4254 32.6702 10.1445 32.2385 8.23041 31.3751C6.33231 30.5117 4.76917 29.34 3.54099 27.8907C2.31281 26.426 1.41959 24.7301 0.845372 22.8028C0.287108 20.8602 0 18.8096 0 16.6511V13.4134H9.20339V16.6511C9.20339 17.715 9.31504 18.748 9.53835 19.7347C9.76165 20.7214 10.1126 21.5848 10.5751 22.3403C11.0536 23.0804 11.6598 23.6817 12.3935 24.1134C13.1272 24.545 14.0364 24.7763 15.105 24.7763Z" fill="#1F1F1F"/>
<path d="M78.2685 24.7764C79.3372 24.7764 80.2463 24.5451 81.012 24.098C81.7776 23.6509 82.3837 23.0341 82.8463 22.2941C83.3248 21.554 83.6597 20.6906 83.883 19.7193C84.1063 18.748 84.218 17.7304 84.218 16.6666V0H93.4214V16.6512C93.4214 18.9022 93.1183 21.0144 92.5282 22.9725C91.938 24.9305 90.9969 26.6265 89.7368 28.0603C88.4767 29.4942 86.8977 30.6197 84.9996 31.4368C83.1015 32.254 80.8525 32.6703 78.2685 32.6703C75.5888 32.6703 73.3079 32.2386 71.3939 31.3752C69.4958 30.5118 67.9326 29.34 66.7044 27.8907C65.4763 26.4261 64.583 24.7301 64.0088 22.8029C63.4346 20.8757 63.1634 18.8251 63.1634 16.6666V0H72.3668V16.6512C72.3668 17.715 72.4785 18.748 72.7018 19.7347C72.9251 20.7215 73.276 21.5849 73.7386 22.3403C74.2171 23.0804 74.8232 23.6817 75.5569 24.1134C76.2906 24.5451 77.1998 24.7764 78.2685 24.7764Z" fill="#1F1F1F"/>
<path d="M61.7282 24.0826C61.7282 25.5472 61.4092 26.7961 60.7871 27.8445C60.1651 28.8929 59.2878 29.7563 58.1872 30.4193C57.0866 31.0822 55.8106 31.5756 54.3432 31.8994C52.8757 32.2231 51.3285 32.3773 49.7016 32.3773H33.2248V0H52.6684C53.8327 0 54.8855 0.246684 55.8265 0.724635C56.7676 1.218 57.5811 1.85013 58.2351 2.62102C58.889 3.39191 59.3994 4.28614 59.7663 5.27288C60.1332 6.25961 60.3086 7.27719 60.3086 8.31018C60.3086 9.83654 59.9099 11.2858 59.1123 12.6734C58.3148 14.061 57.1026 15.094 55.5075 15.8032C57.4216 16.3428 58.9369 17.2987 60.0694 18.6555C61.1699 19.9968 61.7282 21.8007 61.7282 24.0826ZM42.4282 7.57013V12.5501H48.7127C49.3347 12.5501 49.9089 12.3805 50.4353 12.0413C50.9617 11.7021 51.2169 11.0391 51.2169 10.037C51.2169 9.15816 50.9936 8.52603 50.5629 8.14058C50.1163 7.75514 49.6059 7.57013 48.9998 7.57013H42.4282ZM52.3813 22.2633C52.3813 21.477 52.1579 20.814 51.7273 20.2744C51.2807 19.7502 50.7224 19.4726 50.0206 19.4726H42.4282V24.8997H49.7016C50.4513 24.8997 51.0893 24.6684 51.6156 24.2213C52.142 23.7742 52.3813 23.1112 52.3813 22.2633Z" fill="#1F1F1F"/>
<path d="M4.62562 9.75944C7.18028 9.75944 9.25124 7.75763 9.25124 5.28828C9.25124 2.81893 7.18028 0.817127 4.62562 0.817127C2.07096 0.817127 0 2.81893 0 5.28828C0 7.75763 2.07096 9.75944 4.62562 9.75944Z" fill="#1F1F1F"/>
<path d="M25.6322 9.75944C28.1868 9.75944 30.2578 7.75763 30.2578 5.28828C30.2578 2.81893 28.1868 0.817127 25.6322 0.817127C23.0775 0.817127 21.0065 2.81893 21.0065 5.28828C21.0065 7.75763 23.0775 9.75944 25.6322 9.75944Z" fill="#1F1F1F"/>
</svg>
